<svg xmlns="http://www.w3.org/2000/svg" viewBox="0 0 48 48" fill="none">
  <rect width="48" height="48" rx="10" fill="#1E3A8A"/>
  <path d="M12 14a3 3 0 0 1 3-3h18a3 3 0 0 1 3 3v15a3 3 0 0 1-3 3H15a3 3 0 0 1-3-3V14Z" fill="#FFFFFF"/>
  <rect x="14" y="13" width="20" height="9" rx="1.5" fill="#1E3A8A"/>
  <circle cx="18" cy="32" r="2.5" fill="#1E3A8A"/>
  <circle cx="30" cy="32" r="2.5" fill="#1E3A8A"/>
  <rect x="14" y="24" width="5" height="5" rx="1" fill="#0D9488"/>
  <rect x="21.5" y="24" width="5" height="5" rx="1" fill="#0D9488"/>
  <rect x="29" y="24" width="5" height="5" rx="1" fill="#0D9488"/>
</svg>
